<svg id="icono_guardar_activo" xmlns="http://www.w3.org/2000/svg" width="25.468" height="25.465" viewBox="0 0 25.468 25.465">
  <path id="Union_6" data-name="Union 6" d="M-7669.425-147.317h-15.233a3.852,3.852,0,0,1-3.848-3.847v-17.771a3.852,3.852,0,0,1,3.848-3.847h13.965a1.307,1.307,0,0,1,.926.381l6.347,6.349a1.3,1.3,0,0,1,.383.924v13.965a3.851,3.851,0,0,1-3.847,3.847Zm2.54-2.615a1.233,1.233,0,0,0,1.231-1.232v-13.422l-5.581-5.581h-9.574v3.731h8.848a1.308,1.308,0,0,1,1.308,1.308,1.309,1.309,0,0,1-1.308,1.31h-10.157a1.309,1.309,0,0,1-1.309-1.31v-5.039h-1.231a1.231,1.231,0,0,0-1.229,1.232v17.771a1.231,1.231,0,0,0,1.229,1.232h1.231v-8.848a1.309,1.309,0,0,1,1.309-1.308h12.693a1.309,1.309,0,0,1,1.311,1.308v8.848Zm-3.848,0v-7.54h-10.076v7.54Z" transform="translate(7688.506 172.782)" fill="#5a3fe9"/>
</svg>
